<?xml version="1.0" encoding="UTF-8"?>
<!-- Generator: Adobe Illustrator 26.0.1, SVG Export Plug-In . SVG Version: 6.00 Build 0)  -->
<svg version="1.1" id="Layer_1" xmlns="http://www.w3.org/2000/svg" xmlns:xlink="http://www.w3.org/1999/xlink" x="0px" y="0px" viewBox="0 0 205 205" style="enable-background:new 0 0 205 205;" xml:space="preserve">
<style type="text/css">
	.st0{fill-rule:evenodd;clip-rule:evenodd;fill:#6138D8;}
</style>
<path class="st0" d="M102.5,5C47.6,5,2.8,48.7,2.8,102.5S47.6,200,102.5,200c55,0,99.7-43.7,99.7-97.5S157.5,5,102.5,5z   M102.5,179.2c-18.9,0-36.3-6.6-49.9-17.6l50-55.1l49.7,55.2C138.8,172.6,121.4,179.2,102.5,179.2z M166.9,146.4l-64.2-71.3  l-64.6,71.2C29.3,133.8,24,118.8,24,102.5c0-42.2,35.2-76.7,78.5-76.7c43.4,0,78.5,34.5,78.5,76.7  C181,118.8,175.8,133.9,166.9,146.4z"/>
</svg>